<svg id="Layer_1" data-name="Layer 1" xmlns="http://www.w3.org/2000/svg" viewBox="0 0 230 250"><defs><style>.cls-1{fill:#262626;}.cls-19,.cls-2,.cls-20{fill:#231f20;}.cls-14,.cls-23,.cls-3,.cls-6,.cls-7,.cls-8{fill:none;}.cls-3,.cls-6{stroke:#000;}.cls-19,.cls-20,.cls-22,.cls-23,.cls-24,.cls-25,.cls-3,.cls-6,.cls-8{stroke-miterlimit:10;}.cls-4{fill:#2d2d2d;}.cls-22,.cls-24,.cls-25,.cls-5{fill:#fff;}.cls-19,.cls-20,.cls-25,.cls-6,.cls-8{stroke-width:0.25px;}.cls-14,.cls-20,.cls-7,.cls-8{stroke:#231f20;}.cls-14,.cls-7{stroke-linecap:round;stroke-linejoin:round;}.cls-24,.cls-7{stroke-width:0.5px;}.cls-9{fill:#444545;}.cls-10{fill:#d7d8d8;}.cls-11{fill:#473f37;}.cls-12{fill:#303030;}.cls-13{fill:#333;}.cls-15{fill:#608fcb;}.cls-16{fill:#fde93b;}.cls-17{fill:#232323;}.cls-18{fill:#f1595e;}.cls-19{font-size:36px;}.cls-19,.cls-22,.cls-23,.cls-24,.cls-25{stroke:#fff;}.cls-19,.cls-20{font-family:Georgia;}.cls-20{font-size:18px;}.cls-21{fill:#434143;}.cls-22{font-size:26px;font-family:AngsanaNew, Angsana New;}.cls-22,.cls-23{stroke-width:2px;}</style></defs><rect class="cls-1" x="162.89" y="29.3" width="52.5" height="52.5" rx="6.45"/><path class="cls-2" d="M162.89,38.18h52.5l0-3.92s-.78-4.93-5.09-4.94-42.3,0-42.3,0-4.36.46-4.91,4.16a7.13,7.13,0,0,0-.17,1.56Z"/><path d="M106.65,56.17c.43.3.78,1.64-.76,1.56-7.9-1.82-9.47,1.19-9.47,1.19s-.9,0-.49-.73C98.73,53.5,106.21,55.86,106.65,56.17Z"/><path class="cls-3" d="M96.42,58.92s1.57-3,9.47-1.19c1.54.08,1.19-1.26.76-1.56s-7.92-2.67-10.72,2C95.52,58.94,96.42,58.92,96.42,58.92Z"/><path class="cls-4" d="M131.71,50.19s1.8,5.21.76,8.22-2.79,13.76-2.79,13.76C129,71.52,129.15,70,129,70s-.3.52-.3.52l.31-7s-.59.13-.56-.39c.17-1.11.37-5.54,0-4.45s-2,3.19-2,1.36l0-.87a71.28,71.28,0,0,0-.71-7.75c-.23-1.3-2.71-3.35-2.71-3.35.56,1.13.79,6.26.59,8.18-.07.68-.19,1-.37.53s-.24-.57-.36-.84c-5.11-11.41-10.51-9-10.51-9,.92,1.84,1.83,7.75,1.08,6.73-3.82-5.07-5.39-7.1-10.66-7.56s-8.67,4.79-9.51,7.72.18,6.88.18,6.88a5,5,0,0,1-1-1.13c-.29,4.1-.41,6.37-.41,6.37,0,4.06-.56,3.85-.56,3.85l-.26-.8a3.52,3.52,0,0,1-1.18,2.26C89.72,65.61,89,64.4,89,64.4c-5.55-18,1.71-20.78,1.71-20.78a2.25,2.25,0,0,0-2.24-.37c-.14-2.27,3.89-1.9,3.89-1.9,1-6,3.23-6.25,3.23-6.25-1.12,1.59-.54,2.41-.54,2.41a17.4,17.4,0,0,1,11.35-5.94,38.71,38.71,0,0,0,8.75-1.78,7.35,7.35,0,0,1-.74,2.29,12.11,12.11,0,0,0,1.72.44c1.3-.55,1.57-2.47,1.57-2.47,3.1-.28,6.18,6.61,6.18,6.61a12.55,12.55,0,0,0,5,2.38c-.25.84-3.12.79-3.12.79l.94,1.05A10.61,10.61,0,0,1,131.71,50.19Z"/><path class="cls-5" d="M129,63.51l-.31,7c.06.26-.36,9.08-6,14.63-6.69,5.9-9.91,6.46-11.77,6.4s-5.63-.33-12.25-5.85S91.5,69.76,91.5,69.76s.53.21.56-3.85c0,0,.12-2.27.41-6.37a5,5,0,0,0,1,1.13s-1-4-.18-6.88,4.25-8.19,9.51-7.72,6.84,2.49,10.66,7.56c.75,1-.16-4.89-1.08-6.73,0,0,5.4-2.38,10.51,9h0a12,12,0,0,0-6.51.75.8.8,0,0,0,.85,1.28c7-1.39,8.07,1,8.07,1s.68,1,.82.41a.89.89,0,0,0,0-.23h.32l0,.87c0,1.83,1.7-.28,2-1.36s.13,3.34,0,4.45C128.43,63.64,129,63.51,129,63.51Z"/><path class="cls-5" d="M126.44,59.16h-.32c0-1.58-2.51-2.93-2.51-2.93.2-1.92,0-7.05-.59-8.18,0,0,2.48,2,2.71,3.35A71.28,71.28,0,0,1,126.44,59.16Z"/><path d="M126.12,59.17a.89.89,0,0,1,0,.23c-.14.62-.82-.41-.82-.41s-1.12-2.42-8.07-1a.8.8,0,0,1-.85-1.28,12,12,0,0,1,6.51-.75h0q.18.41.36.84c.18.43.3.15.37-.53C123.61,56.24,126.08,57.59,126.12,59.17Z"/><path class="cls-3" d="M91.5,69.76s.63,10.39,7.24,15.89S109.13,91.44,111,91.5s5.08-.5,11.77-6.4c5.59-5.55,6-14.37,6-14.63,0,0,.17-.54.3-.52s0,1.57.67,2.22c0,0,1.76-10.75,2.79-13.76s-.76-8.22-.76-8.22a10.61,10.61,0,0,0-5-9.31l-.94-1.05s2.87.05,3.12-.79a12.55,12.55,0,0,1-5-2.38s-3.08-6.89-6.18-6.61c0,0-.27,1.92-1.57,2.47a12.11,12.11,0,0,1-1.72-.44,7.35,7.35,0,0,0,.74-2.29,38.71,38.71,0,0,1-8.75,1.78A17.4,17.4,0,0,0,95,37.51s-.58-.82.54-2.41c0,0-2.18.3-3.23,6.25,0,0-4-.37-3.89,1.9a2.25,2.25,0,0,1,2.24.37S83.42,46.44,89,64.4c0,0,.75,1.21,1.09,6.82A3.52,3.52,0,0,0,91.24,69Z"/><path class="cls-3" d="M91.5,69.76s.53.21.56-3.85c0,0,.12-2.27.41-6.37a5,5,0,0,0,1,1.13s-1-4-.18-6.88,4.25-8.19,9.51-7.72,6.84,2.49,10.66,7.56c.75,1-.16-4.89-1.08-6.73,0,0,5.4-2.38,10.51,9q.18.41.36.84c.18.43.3.15.37-.53.2-1.92,0-7.05-.59-8.18,0,0,2.48,2,2.71,3.35a71.28,71.28,0,0,1,.71,7.75l0,.87c0,1.83,1.7-.28,2-1.36s.13,3.34,0,4.45c0,.52.56.39.56.39l-.31,7"/><path class="cls-3" d="M123.61,56.24s2.47,1.35,2.51,2.93a.89.89,0,0,1,0,.23c-.14.62-.82-.41-.82-.41s-1.12-2.42-8.07-1a.8.8,0,0,1-.85-1.28,12,12,0,0,1,6.51-.75"/><path class="cls-3" d="M96.38,66.08s2.33-3.91,7.43-1.86c3.76,2.18,2.84,3.75,2.84,3.75S100.14,71.64,96.38,66.08Z"/><path class="cls-3" d="M108.63,74.22s.09,2,2.58,2,2.86-1.78,2.86-1.78.35-2.4-2.53-2.58A2.45,2.45,0,0,0,108.63,74.22Z"/><path class="cls-5" d="M117.82,80.06c.8,0-1.21,3.94-5.71,4s-8.18-1.06-8.46-4.24C103.65,79.79,110.66,80.05,117.82,80.06Z"/><path class="cls-3" d="M103.65,79.79s7,.26,14.17.27c.8,0-1.21,3.94-5.71,4S103.93,83,103.65,79.79Z"/><path d="M102.94,63.92a3.32,3.32,0,0,1,1,5,8.41,8.41,0,0,1-5.42-.77s-1.14-4.79,2.76-4.56A10.76,10.76,0,0,1,102.94,63.92Z"/><path class="cls-6" d="M98.49,68.18s-1.14-4.79,2.76-4.56a10.76,10.76,0,0,1,1.69.3,3.32,3.32,0,0,1,1,5A8.41,8.41,0,0,1,98.49,68.18Z"/><path class="cls-5" d="M121.3,64.14c4.16.17,4.15,2.72,4.15,2.72s-2.16,4.35-9.39,1.75c-1-.65-.62-1-.62-1S116.54,64,121.3,64.14Z"/><path class="cls-7" d="M115.44,67.63s1.1-3.65,5.86-3.49c4.16.17,4.15,2.72,4.15,2.72s-2.16,4.35-9.39,1.75C115.09,68,115.44,67.63,115.44,67.63Z"/><path d="M121.61,64.15A3.55,3.55,0,0,1,122.73,69a9.38,9.38,0,0,1-5.23,0,4.11,4.11,0,0,1-.43-3.67A7.08,7.08,0,0,1,121.61,64.15Z"/><path class="cls-8" d="M117.5,69.05a4.11,4.11,0,0,1-.43-3.67,7.08,7.08,0,0,1,4.54-1.23A3.55,3.55,0,0,1,122.73,69,9.38,9.38,0,0,1,117.5,69.05Z"/><path class="cls-9" d="M177.63,168.59c1.68.77,3.36,12.13,1.29,15.16-1.69,2.48-13.09,12.39-42.38,21.42q-2.39.74-4.94,1.46l-2,.56h0l-4.52,1.11L118.39,210c-5.27-4.59-5.88-18.76-5.88-18.76l.32-.21c6-3.79,16.65-10.41,20.74-11.69h10.06l.22-3.29.05-.71S166.6,166.46,177.63,168.59Z"/><path class="cls-9" d="M177.63,168.59c-11-2.13-33.73,6.71-33.73,6.71l.59-8.86h0c7.8-2.2,11.75-4.87,13.26-9.82C157.76,156.62,176.15,161.49,177.63,168.59Z"/><path class="cls-10" d="M67.46,155.71c-2.3-7.05-2-15.17-1.28-20.7,1.26-9.77,6.16-26,11.39-31.07a66.55,66.55,0,0,1,23.55-12.71,16,16,0,0,1-.58,3.62s11.16,7.61,22.06-.91a10.35,10.35,0,0,1-1-2.7c.49.17,16.19,5.71,23.75,12.06s11.48,28.61,12.83,41.77c.51,4.9.46,8.62-.45,11.55-1.51,4.95-5.46,7.62-13.26,9.82h0L146.6,135c-3-.45-6.2-.82-9.39-1.11-18-1.64-37.52-.94-49.55-.19-7.14.45-11.64.91-11.64.91l2.36,33.75C72.54,165.88,69.24,161.11,67.46,155.71Z"/><path class="cls-5" d="M146.6,135l-2.11,31.4-.59,8.86-.05.71H78.9l-.52-7.61L76,134.65s4.5-.46,11.64-.91c12-.75,31.54-1.45,49.55.19C140.4,134.22,143.55,134.59,146.6,135Zm-30.77,19.23a4.46,4.46,0,1,0-4.46,4.45A4.46,4.46,0,0,0,115.83,154.27Z"/><polygon class="cls-5" points="143.85 176.01 143.63 179.3 133.57 179.3 87.05 179.3 79.12 179.3 78.9 176.01 143.85 176.01"/><path class="cls-11" d="M136.54,205.17s.67,3.48-.68,5.81-2.81,5.8-8.52,6.58-13.06.08-18.67-3c.89-.38,1.72-.78,2.45-1.18,4.51,2.14,12.06,3.48,17,1.22s3.45-8,3.45-8h0Q134.15,205.91,136.54,205.17Z"/><path class="cls-12" d="M87.05,179.3h46.52c-4.09,1.28-14.78,7.9-20.74,11.69a33.43,33.43,0,0,0-5.33-1.05l-2.38-1.41C104.28,187.62,87.05,179.3,87.05,179.3Z"/><path class="cls-5" d="M125.05,208.41c1.55-.4,3.06-.8,4.53-1.21h0l2-.56h0s1.52,5.69-3.45,8-12.52.92-17-1.22a10,10,0,0,0,3.13-2.39C118.05,210.15,121.64,209.29,125.05,208.41Z"/><path class="cls-5" d="M121.63,91.24a10.35,10.35,0,0,0,1,2.7c-10.9,8.52-22.06.91-22.06.91a16,16,0,0,0,.58-3.62,21.27,21.27,0,0,0-.12-3.81c6.75,4.66,9.47,4.23,12,3.86s8.14-4.79,8.14-4.79a18.92,18.92,0,0,0,.49,4.74Z"/><path class="cls-5" d="M118.39,210l-4.14,1a8.45,8.45,0,0,1-.72-.84c-1.42-1.86-4.52-7-4.86-16.45,0,0,1.52-1,3.84-2.49C112.51,191.2,113.12,205.37,118.39,210Z"/><path d="M111.37,149.81a4.46,4.46,0,1,1-4.45,4.46A4.46,4.46,0,0,1,111.37,149.81Z"/><path class="cls-11" d="M113.53,210.14a8.45,8.45,0,0,0,.72.84,10,10,0,0,1-3.13,2.39c-.73.4-1.56.8-2.45,1.18-7.5,3.2-19.83,5.41-24.92,3.3-6.87-2.86-4-14.55-4-14.55a36.16,36.16,0,0,1,19.35-9.43,37.92,37.92,0,0,1,9.56-.18c.34,9.49,3.44,14.59,4.86,16.45a23.71,23.71,0,0,1-4.73-14.2s-21.42,2.59-23.23,8.52-.65,9,1.42,10.45,12.21,3.52,26.55-4.75Z"/><path class="cls-5" d="M113.53,210.14v0c-14.34,8.27-24.49,6.17-26.55,4.75s-3.23-4.51-1.42-10.45,23.23-8.52,23.23-8.52A23.71,23.71,0,0,0,113.53,210.14Z"/><path class="cls-5" d="M112.83,191l-.32.21c-2.32,1.48-3.84,2.49-3.84,2.49a34.4,34.4,0,0,0-4.91-.21v0c.65-.83,3.74-3.52,3.74-3.52A33.43,33.43,0,0,1,112.83,191Z"/><path class="cls-5" d="M105.12,188.53l2.38,1.41s-3.09,2.69-3.74,3.52v0a34.43,34.43,0,0,0-4.65.39A46.35,46.35,0,0,1,105.12,188.53Z"/><path class="cls-9" d="M105.12,188.53a46.35,46.35,0,0,0-6,5.34,36.16,36.16,0,0,0-19.35,9.43C67.63,198.65,49.57,189,47.12,184.59c-1.42-5.1-1.81-8.39.38-15.61,0,0,13-2.46,31.39,7l.23,3.29h7.93S104.28,187.62,105.12,188.53Z"/><polygon class="cls-13" points="78.9 176.01 79.12 179.3 78.89 176.01 78.9 176.01"/><path class="cls-9" d="M78.38,168.4,78.9,176h0c-18.35-9.49-31.39-7-31.39-7,2.17-7.12,19.42-13.09,20-13.27C69.24,161.11,72.54,165.88,78.38,168.4Z"/><path class="cls-3" d="M121.62,91.23a18.92,18.92,0,0,1-.49-4.74s-5.62,4.42-8.14,4.79-5.24.8-12-3.86a21.27,21.27,0,0,1,.12,3.81,16,16,0,0,1-.58,3.62s11.16,7.61,22.06-.91a10.35,10.35,0,0,1-1-2.7"/><path class="cls-3" d="M143.9,175.3l.59-8.86L146.6,135c-3-.45-6.2-.82-9.39-1.11-18-1.64-37.52-.94-49.55-.19-7.14.45-11.64.91-11.64.91l2.36,33.75c-5.84-2.52-9.14-7.29-10.92-12.69-2.3-7.05-2-15.17-1.28-20.7,1.26-9.77,6.16-26,11.39-31.07a66.55,66.55,0,0,1,23.55-12.71"/><line class="cls-3" x1="87.05" y1="179.3" x2="133.57" y2="179.3"/><polyline class="cls-3" points="78.38 168.4 78.9 176.01 79.12 179.3"/><path class="cls-3" d="M115.83,154.27a4.46,4.46,0,1,0-4.46,4.45A4.46,4.46,0,0,0,115.83,154.27Z"/><path class="cls-3" d="M121.62,91.23h0c.49.17,16.19,5.71,23.75,12.06s11.48,28.61,12.83,41.77c.51,4.9.46,8.62-.45,11.55-1.51,4.95-5.46,7.62-13.26,9.82"/><path class="cls-14" d="M87.66,133.74s2.52-12.67,2.52-17.5"/><path class="cls-14" d="M137.21,133.93s-3.19-12.76-3.48-19.53"/><path class="cls-14" d="M129.58,207.2c-1.47.41-3,.81-4.53,1.21-3.41.88-7,1.74-10.8,2.57a8.45,8.45,0,0,1-.72-.84c-1.42-1.86-4.52-7-4.86-16.45"/><path class="cls-14" d="M67.47,155.7h0c-.54.18-17.79,6.15-20,13.27s-1.8,10.51-.38,15.61c2.45,4.45,20.51,14.06,32.64,18.71a36.16,36.16,0,0,1,19.35-9.43,37.92,37.92,0,0,1,9.56-.18s1.52-1,3.84-2.49l.32-.21c6-3.79,16.65-10.41,20.74-11.69h10.06l.22-3.29.05-.71s22.7-8.84,33.73-6.71c1.68.77,3.36,12.13,1.29,15.16-1.69,2.48-13.09,12.39-42.38,21.42q-2.39.74-4.94,1.46l-2,.56"/><path class="cls-14" d="M79.76,203.3s-2.88,11.69,4,14.55c5.09,2.11,17.42-.1,24.92-3.3.89-.38,1.72-.78,2.45-1.18a10,10,0,0,0,3.13-2.39l4.14-1,6.67-1.65,4.52-1.11h0"/><path class="cls-14" d="M157.76,156.62s18.39,4.87,19.87,12"/><path class="cls-14" d="M108.8,195.94s-21.42,2.59-23.23,8.52-.65,9,1.42,10.45,12.21,3.52,26.55-4.75v0A23.71,23.71,0,0,1,108.8,195.94Z"/><path class="cls-14" d="M90.47,204.11s-2.51,6.38,1.74,8.22"/><path class="cls-14" d="M95.31,203.3a6.21,6.21,0,0,0,2,7.69"/><path class="cls-14" d="M100.05,202.07s-1.93,5,2.13,7.75"/><path class="cls-14" d="M112.51,191.2s.61,14.17,5.88,18.76l0,0"/><path class="cls-3" d="M47.5,169s13-2.46,31.39,7h65"/><path class="cls-3" d="M78.89,176l.23,3.29h7.93s17.23,8.32,18.07,9.23a46.35,46.35,0,0,0-6,5.34"/><path class="cls-3" d="M105.12,188.53l2.38,1.41s-3.09,2.69-3.74,3.52"/><path class="cls-3" d="M107.5,189.94a33.43,33.43,0,0,1,5.33,1.05"/><path class="cls-3" d="M136.54,205.17s.67,3.48-.68,5.81-2.81,5.8-8.52,6.58-13.06.08-18.67-3"/><path class="cls-3" d="M131.6,206.64s1.52,5.69-3.45,8-12.52.92-17-1.22"/><path class="cls-3" d="M125.06,208.31a.67.67,0,0,1,0,.1,3.55,3.55,0,0,1-1.74,2.58"/><polygon class="cls-15" points="54.63 199.57 54.58 199.65 51.42 201.47 51.42 201.44 48.95 200.02 48.95 199.26 51.47 197.83 54.63 199.57"/><polygon class="cls-16" points="54.58 199.65 54.46 203.68 52.14 205.19 51.46 204.71 51.42 201.47 54.58 199.65"/><polygon class="cls-16" points="54.46 203.68 54.35 207.4 51.98 208.77 51.41 208.29 51.41 206.27 52.14 205.19 54.46 203.68"/><polygon class="cls-16" points="54.35 207.4 54.25 210.54 51.31 212.38 51.31 209.84 51.98 208.77 54.35 207.4"/><polygon class="cls-17" points="52.14 205.19 51.41 206.27 50.86 205.76 51.46 204.71 52.14 205.19"/><polygon class="cls-17" points="51.98 208.77 51.31 209.84 50.59 209.65 51.41 208.29 51.98 208.77"/><polygon class="cls-15" points="51.47 197.83 48.95 199.26 47.44 199.13 45.78 198.13 45.71 197.33 48.23 196.05 48.24 196.05 51.47 197.83"/><polygon class="cls-16" points="51.42 201.47 51.46 204.71 50.86 205.76 48.61 207.11 47.88 206.9 47.83 203.53 51.42 201.47"/><polygon class="cls-15" points="51.42 201.44 51.42 201.47 47.83 203.53 47.83 203.5 45.39 201.9 45.47 201.03 47.34 200.02 48.95 200.02 51.42 201.44"/><polygon class="cls-16" points="51.41 206.27 51.41 208.29 50.59 209.65 48.69 210.78 47.96 210.51 47.88 208.43 48.61 207.11 50.86 205.76 51.41 206.27"/><polygon class="cls-16" points="51.31 209.84 51.31 212.38 47.81 214.56 47.88 212.07 48.69 210.78 50.59 209.65 51.31 209.84"/><polygon class="cls-17" points="48.95 199.26 48.95 200.02 47.34 200.02 47.44 199.13 48.95 199.26"/><polygon class="cls-17" points="48.69 210.78 47.88 212.07 47.34 211.73 47.96 210.51 48.69 210.78"/><polygon class="cls-17" points="48.61 207.11 47.88 208.43 47.29 208 47.88 206.9 48.61 207.11"/><polygon class="cls-15" points="48.23 196.05 45.71 197.33 44.46 197.33 42.25 196.11 42.25 196.1 45.44 194.51 48.23 196.05"/><polygon class="cls-16" points="47.88 208.43 47.96 210.51 47.34 211.73 44.21 213.29 44.21 209.47 47.29 208 47.88 208.43"/><polygon class="cls-16" points="47.83 203.53 47.88 206.9 47.29 208 44.21 209.47 44.21 205.61 44.23 205.6 47.83 203.53"/><polygon class="cls-16" points="47.88 212.07 47.81 214.56 44.21 216.82 44.21 213.29 47.34 211.73 47.88 212.07"/><polygon class="cls-15" points="47.83 203.5 47.83 203.53 44.23 205.6 44.21 205.56 41.05 203.45 43.96 201.9 45.39 201.9 47.83 203.5"/><polygon class="cls-15" points="47.44 199.13 47.34 200.02 45.47 201.03 43.91 201.08 42.15 199.97 42.25 199.13 44.05 198.2 45.78 198.13 47.44 199.13"/><polygon class="cls-17" points="45.71 197.33 45.78 198.13 44.05 198.2 44.46 197.33 45.71 197.33"/><polygon class="cls-17" points="45.47 201.03 45.39 201.9 43.96 201.9 43.91 201.08 45.47 201.03"/><polygon class="cls-15" points="44.46 197.33 44.05 198.2 42.25 199.13 40.86 199.07 38.9 197.77 42.25 196.1 42.25 196.11 44.46 197.33"/><polygon class="cls-18" points="44.21 205.56 44.23 205.6 44.21 205.61 44.21 209.47 41.74 207.7 41.16 206.68 41.05 203.45 44.21 205.56"/><polygon class="cls-18" points="44.21 213.29 44.21 216.82 41.43 214.53 41.36 211.84 41.92 211.49 44.21 213.29"/><polygon class="cls-18" points="44.21 209.47 44.21 213.29 41.92 211.49 41.36 210.37 41.29 208.37 41.74 207.7 44.21 209.47"/><polygon class="cls-15" points="43.91 201.08 43.96 201.9 41.05 203.45 37.89 201.35 37.89 201.34 40.86 199.83 42.15 199.97 43.91 201.08"/><polygon class="cls-17" points="42.25 199.13 42.15 199.97 40.86 199.83 40.86 199.07 42.25 199.13"/><polygon class="cls-17" points="41.36 210.37 41.92 211.49 41.36 211.84 40.67 210.56 41.36 210.37"/><polygon class="cls-17" points="41.16 206.68 41.74 207.7 41.29 208.37 40.33 206.78 41.16 206.68"/><polygon class="cls-18" points="41.36 211.84 41.43 214.53 38.56 212.17 38.44 209.53 38.99 209.28 40.67 210.56 41.36 211.84"/><polygon class="cls-18" points="41.29 208.37 41.36 210.37 40.67 210.56 38.99 209.28 38.28 208.08 38.19 206.08 38.63 205.6 40.33 206.78 41.29 208.37"/><polygon class="cls-18" points="41.05 203.45 41.16 206.68 40.33 206.78 38.63 205.6 38.04 204.41 37.89 201.35 41.05 203.45"/><polygon class="cls-15" points="40.86 199.07 40.86 199.83 37.89 201.34 35.25 199.58 38.9 197.77 40.86 199.07"/><polygon class="cls-17" points="38.28 208.08 38.99 209.28 38.44 209.53 37.81 208.48 38.28 208.08"/><polygon class="cls-17" points="38.04 204.41 38.63 205.6 38.19 206.08 37.56 204.74 38.04 204.41"/><polygon class="cls-18" points="38.44 209.53 38.56 212.17 35.99 210.07 35.77 206.94 37.81 208.48 38.44 209.53"/><polygon class="cls-18" points="38.19 206.08 38.28 208.08 37.81 208.48 35.77 206.94 35.51 203.33 37.56 204.74 38.19 206.08"/><polygon class="cls-18" points="37.89 201.35 38.04 204.41 37.56 204.74 35.51 203.33 35.25 199.58 37.89 201.34 37.89 201.35"/><polygon class="cls-8" points="44.23 205.6 44.21 205.61 44.21 209.47 44.21 213.29 44.21 216.82 47.81 214.56 51.31 212.38 54.25 210.54 54.35 207.4 54.46 203.68 54.58 199.65 51.42 201.47 47.83 203.53 44.23 205.6"/><polyline class="cls-8" points="37.89 201.34 35.25 199.58 35.51 203.33 35.77 206.94 35.99 210.07 38.56 212.17 41.43 214.53 44.21 216.82"/><polyline class="cls-8" points="44.21 205.56 41.05 203.45 37.89 201.35"/><polyline class="cls-8" points="48.24 196.05 51.47 197.83 54.63 199.57 54.65 199.58"/><polyline class="cls-8" points="35.25 199.58 38.9 197.77 42.25 196.1 45.44 194.51 48.23 196.05"/><polyline class="cls-8" points="48.24 196.05 48.23 196.05 45.71 197.33 44.46 197.33 42.25 196.11"/><polyline class="cls-8" points="38.9 197.77 40.86 199.07 42.25 199.13 44.05 198.2 44.46 197.33"/><polyline class="cls-8" points="40.86 199.07 40.86 199.83 37.89 201.34 37.89 201.35 38.04 204.41 37.56 204.74 35.51 203.33"/><polyline class="cls-8" points="43.96 201.9 45.39 201.9 47.83 203.5 47.83 203.53 47.88 206.9 47.29 208 44.21 209.47 41.74 207.7 41.16 206.68"/><polyline class="cls-8" points="48.95 200.02 48.95 199.26 51.47 197.83"/><polyline class="cls-8" points="47.34 200.02 47.44 199.13 45.78 198.13 44.05 198.2"/><line class="cls-8" x1="48.95" y1="199.26" x2="47.44" y2="199.13"/><line class="cls-8" x1="42.15" y1="199.97" x2="42.25" y2="199.13"/><line class="cls-8" x1="45.78" y1="198.13" x2="45.71" y2="197.33"/><line class="cls-8" x1="43.91" y1="201.08" x2="45.47" y2="201.03"/><polyline class="cls-8" points="38.04 204.41 38.63 205.6 40.33 206.78 41.16 206.68 41.05 203.45 43.96 201.9 43.91 201.08 42.15 199.97 40.86 199.83"/><polyline class="cls-8" points="37.56 204.74 38.19 206.08 38.28 208.08 37.81 208.48 35.77 206.94"/><line class="cls-8" x1="38.19" y1="206.08" x2="38.63" y2="205.6"/><polyline class="cls-8" points="37.81 208.48 38.44 209.53 38.56 212.17"/><polyline class="cls-8" points="38.44 209.53 38.99 209.28 38.28 208.08"/><polyline class="cls-8" points="38.99 209.28 40.67 210.56 41.36 211.84 41.43 214.53"/><polyline class="cls-8" points="40.67 210.56 41.36 210.37 41.92 211.49"/><polyline class="cls-8" points="41.36 210.37 41.29 208.37 41.74 207.7"/><line class="cls-8" x1="40.33" y1="206.78" x2="41.29" y2="208.37"/><polyline class="cls-8" points="47.29 208 47.88 208.43 47.96 210.51 47.34 211.73 44.21 213.29 41.92 211.49 41.36 211.84"/><polyline class="cls-8" points="47.34 211.73 47.88 212.07 47.81 214.56"/><polyline class="cls-8" points="47.88 212.07 48.69 210.78 47.96 210.51"/><polyline class="cls-8" points="47.88 208.43 48.61 207.11 47.88 206.9"/><polyline class="cls-8" points="48.69 210.78 50.59 209.65 51.31 209.84 51.31 212.38"/><polyline class="cls-8" points="48.61 207.11 50.86 205.76 51.46 204.71 51.42 201.47 51.42 201.44 48.95 200.02 47.34 200.02 45.47 201.03 45.39 201.9"/><polyline class="cls-8" points="50.59 209.65 51.41 208.29 51.41 206.27 50.86 205.76"/><polyline class="cls-8" points="51.31 209.84 51.98 208.77 54.35 207.4"/><line class="cls-8" x1="51.41" y1="208.29" x2="51.98" y2="208.77"/><polyline class="cls-8" points="51.41 206.27 52.14 205.19 51.46 204.71"/><line class="cls-8" x1="54.46" y1="203.68" x2="52.14" y2="205.19"/><text class="cls-19" transform="translate(7.55 145.62)">DEVELOPER</text><text class="cls-20" transform="translate(90.99 115.64)">WEB</text><rect class="cls-21" x="16.32" y="40.11" width="34.43" height="18.06" rx="2.69"/><text class="cls-22" transform="translate(32.62 54.98) scale(0.37 1)">/</text><polyline class="cls-23" points="39.18 42.68 45.5 48.96 39.18 55.98"/><polyline class="cls-23" points="26.9 55.98 20.58 49.7 26.9 42.68"/><rect class="cls-24" x="167.39" y="40.81" width="29.39" height="1.45" rx="0.73"/><rect class="cls-24" x="174.26" y="46.07" width="23.06" height="1.45" rx="0.73"/><rect class="cls-24" x="174.21" y="51.14" width="23.06" height="1.45" rx="0.73"/><rect class="cls-24" x="167.63" y="56.21" width="29.65" height="1.45" rx="0.73"/><rect class="cls-24" x="174.5" y="61.52" width="36.34" height="1.45" rx="0.73"/><rect class="cls-24" x="167.19" y="66.91" width="14.37" height="1.45" rx="0.73"/><rect class="cls-24" x="167.34" y="73.02" width="37.06" height="1.45" rx="0.73"/><circle class="cls-25" cx="209.81" cy="34.13" r="2.29"/><circle class="cls-25" cx="202.48" cy="34.13" r="2.29"/></svg>